<svg width="48" height="48" viewBox="0 0 48 48" fill="none" xmlns="http://www.w3.org/2000/svg">
<g clip-path="url(#clip0_3_385)">
<path fill-rule="evenodd" clip-rule="evenodd" d="M43.2806 30.2194C43.5737 30.5124 43.5737 30.9876 43.2806 31.2806C42.9876 31.5737 42.5124 31.5737 42.2194 31.2806L36 25.0603L29.7806 31.2806C29.4876 31.5737 29.0124 31.5737 28.7194 31.2806C28.4263 30.9876 28.4263 30.5124 28.7194 30.2194L34.9397 24L28.7194 17.7806C28.4263 17.4876 28.4263 17.0124 28.7194 16.7194C29.0124 16.4263 29.4876 16.4263 29.7806 16.7194L36 22.9397L42.2194 16.7194C42.5124 16.4263 42.9876 16.4263 43.2806 16.7194C43.5737 17.0124 43.5737 17.4876 43.2806 17.7806L37.0603 24L43.2806 30.2194Z" fill="white"/>
</g>
<defs>
<clipPath id="clip0_3_385">
<rect width="24" height="24" fill="white" transform="translate(24 12)"/>
</clipPath>
</defs>
</svg>
