<svg width="24" height="32" viewBox="0 0 24 32" fill="none" xmlns="http://www.w3.org/2000/svg">
<g clip-path="url(#clip0_35_89)">
<path fill-rule="evenodd" clip-rule="evenodd" d="M19.5 7H4.5C3.67157 7 3 7.67157 3 8.5V23.5C3 24.3284 3.67157 25 4.5 25H19.5C20.3284 25 21 24.3284 21 23.5V8.5C21 7.67157 20.3284 7 19.5 7ZM19.5 23.5H4.5V8.5H19.5V23.5ZM16.5 16C16.5 16.4142 16.1642 16.75 15.75 16.75H12.75V19.75C12.75 20.1642 12.4142 20.5 12 20.5C11.5858 20.5 11.25 20.1642 11.25 19.75V16.75H8.25C7.83579 16.75 7.5 16.4142 7.5 16C7.5 15.5858 7.83579 15.25 8.25 15.25H11.25V12.25C11.25 11.8358 11.5858 11.5 12 11.5C12.4142 11.5 12.75 11.8358 12.75 12.25V15.25H15.75C16.1642 15.25 16.5 15.5858 16.5 16Z" fill="#AD9EB8"/>
</g>
<defs>
<clipPath id="clip0_35_89">
<rect width="24" height="24" fill="white" transform="translate(0 4)"/>
</clipPath>
</defs>
</svg>
