<svg width="24" height="32" viewBox="0 0 24 32" fill="none" xmlns="http://www.w3.org/2000/svg">
<g clip-path="url(#clip0_26_105)">
<path fill-rule="evenodd" clip-rule="evenodd" d="M20.25 9.25H16.5V8.5C16.5 7.25736 15.4926 6.25 14.25 6.25H9.75C8.50736 6.25 7.5 7.25736 7.5 8.5V9.25H3.75C2.92157 9.25 2.25 9.92157 2.25 10.75V22.75C2.25 23.5784 2.92157 24.25 3.75 24.25H20.25C21.0784 24.25 21.75 23.5784 21.75 22.75V10.75C21.75 9.92157 21.0784 9.25 20.25 9.25ZM9 8.5C9 8.08579 9.33579 7.75 9.75 7.75H14.25C14.6642 7.75 15 8.08579 15 8.5V9.25H9V8.5ZM20.25 10.75V14.6509C17.7185 16.0289 14.8822 16.7505 12 16.75C9.11794 16.7505 6.28165 16.0292 3.75 14.6519V10.75H20.25ZM20.25 22.75H3.75V16.3413C6.31868 17.5977 9.1405 18.2506 12 18.25C14.8596 18.2501 17.6813 17.5969 20.25 16.3403V22.75ZM9.75 14.5C9.75 14.0858 10.0858 13.75 10.5 13.75H13.5C13.9142 13.75 14.25 14.0858 14.25 14.5C14.25 14.9142 13.9142 15.25 13.5 15.25H10.5C10.0858 15.25 9.75 14.9142 9.75 14.5Z" fill="#AD9EB8"/>
</g>
<defs>
<clipPath id="clip0_26_105">
<rect width="24" height="24" fill="white" transform="translate(0 4)"/>
</clipPath>
</defs>
</svg>
