<svg width="24" height="32" viewBox="0 0 24 32" fill="none" xmlns="http://www.w3.org/2000/svg">
<g clip-path="url(#clip0_3_297)">
<path fill-rule="evenodd" clip-rule="evenodd" d="M20.25 8.5H3.75C2.92157 8.5 2.25 9.17157 2.25 10V25C2.24647 25.5843 2.58587 26.1163 3.11719 26.3594C3.3154 26.4517 3.53135 26.4997 3.75 26.5C4.10213 26.4992 4.44258 26.3736 4.71094 26.1456C4.71541 26.1427 4.7195 26.1392 4.72312 26.1353L7.73438 23.5H20.25C21.0784 23.5 21.75 22.8284 21.75 22V10C21.75 9.17157 21.0784 8.5 20.25 8.5ZM20.25 22H7.73438C7.38115 21.9998 7.03919 22.1243 6.76875 22.3516L6.7575 22.3619L3.75 25V10H20.25V22Z" fill="#AD9EB8"/>
</g>
<defs>
<clipPath id="clip0_3_297">
<rect width="24" height="24" fill="white" transform="translate(0 4)"/>
</clipPath>
</defs>
</svg>
