<svg width="48" height="32" viewBox="0 0 48 32" fill="none" xmlns="http://www.w3.org/2000/svg">
<g clip-path="url(#clip0_4_623)">
<path fill-rule="evenodd" clip-rule="evenodd" d="M24 6.25C18.6152 6.25 14.25 10.6152 14.25 16C14.25 21.3848 18.6152 25.75 24 25.75C29.3848 25.75 33.75 21.3848 33.75 16C33.7433 10.618 29.382 6.25671 24 6.25ZM27.75 16.75H24.75V19.75C24.75 20.1642 24.4142 20.5 24 20.5C23.5858 20.5 23.25 20.1642 23.25 19.75V16.75H20.25C19.8358 16.75 19.5 16.4142 19.5 16C19.5 15.5858 19.8358 15.25 20.25 15.25H23.25V12.25C23.25 11.8358 23.5858 11.5 24 11.5C24.4142 11.5 24.75 11.8358 24.75 12.25V15.25H27.75C28.1642 15.25 28.5 15.5858 28.5 16C28.5 16.4142 28.1642 16.75 27.75 16.75Z" fill="white"/>
</g>
<defs>
<clipPath id="clip0_4_623">
<rect width="24" height="24" fill="white" transform="translate(12 4)"/>
</clipPath>
</defs>
</svg>
