<svg width="24" height="32" viewBox="0 0 24 32" fill="none" xmlns="http://www.w3.org/2000/svg">
<g clip-path="url(#clip0_35_107)">
<path fill-rule="evenodd" clip-rule="evenodd" d="M20.0306 11.7194L14.7806 6.46937C14.6399 6.32876 14.449 6.24984 14.25 6.25H5.25C4.42157 6.25 3.75 6.92157 3.75 7.75V24.25C3.75 25.0784 4.42157 25.75 5.25 25.75H18.75C19.5784 25.75 20.25 25.0784 20.25 24.25V12.25C20.2502 12.051 20.1712 11.8601 20.0306 11.7194ZM15 8.81031L17.6897 11.5H15V8.81031ZM18.75 24.25H5.25V7.75H13.5V12.25C13.5 12.6642 13.8358 13 14.25 13H18.75V24.25ZM14.7806 16.5306L13.0603 18.25L14.7806 19.9694C15.0737 20.2624 15.0737 20.7376 14.7806 21.0306C14.4876 21.3237 14.0124 21.3237 13.7194 21.0306L12 19.3103L10.2806 21.0306C9.98757 21.3237 9.51243 21.3237 9.21937 21.0306C8.92632 20.7376 8.92632 20.2624 9.21937 19.9694L10.9397 18.25L9.21937 16.5306C8.92632 16.2376 8.92632 15.7624 9.21937 15.4694C9.51243 15.1763 9.98757 15.1763 10.2806 15.4694L12 17.1897L13.7194 15.4694C14.0124 15.1763 14.4876 15.1763 14.7806 15.4694C15.0737 15.7624 15.0737 16.2376 14.7806 16.5306Z" fill="#AD9EB8"/>
</g>
<defs>
<clipPath id="clip0_35_107">
<rect width="24" height="24" fill="white" transform="translate(0 4)"/>
</clipPath>
</defs>
</svg>
