<svg width="48" height="32" viewBox="0 0 48 32" fill="none" xmlns="http://www.w3.org/2000/svg">
<g clip-path="url(#clip0_35_98)">
<path fill-rule="evenodd" clip-rule="evenodd" d="M32.25 7.75H15.75C14.9216 7.75 14.25 8.42157 14.25 9.25V23.5C14.2501 23.7599 14.3848 24.0012 14.606 24.1378C14.8271 24.2743 15.1032 24.2866 15.3356 24.1703L18 22.8381L20.6644 24.1703C20.8756 24.276 21.1244 24.276 21.3356 24.1703L24 22.8381L26.6644 24.1703C26.8756 24.276 27.1244 24.276 27.3356 24.1703L30 22.8381L32.6644 24.1703C32.8968 24.2866 33.1729 24.2743 33.394 24.1378C33.6152 24.0012 33.7499 23.7599 33.75 23.5V9.25C33.75 8.42157 33.0784 7.75 32.25 7.75ZM28.5 17.5H19.5C19.0858 17.5 18.75 17.1642 18.75 16.75C18.75 16.3358 19.0858 16 19.5 16H28.5C28.9142 16 29.25 16.3358 29.25 16.75C29.25 17.1642 28.9142 17.5 28.5 17.5ZM28.5 14.5H19.5C19.0858 14.5 18.75 14.1642 18.75 13.75C18.75 13.3358 19.0858 13 19.5 13H28.5C28.9142 13 29.25 13.3358 29.25 13.75C29.25 14.1642 28.9142 14.5 28.5 14.5Z" fill="white"/>
</g>
<defs>
<clipPath id="clip0_35_98">
<rect width="24" height="24" fill="white" transform="translate(12 4)"/>
</clipPath>
</defs>
</svg>
