<svg width="48" height="32" viewBox="0 0 48 32" fill="none" xmlns="http://www.w3.org/2000/svg">
<g clip-path="url(#clip0_3_288)">
<path fill-rule="evenodd" clip-rule="evenodd" d="M26.25 14.5C26.25 14.9142 25.9142 15.25 25.5 15.25H22.5C22.0858 15.25 21.75 14.9142 21.75 14.5C21.75 14.0858 22.0858 13.75 22.5 13.75H25.5C25.9142 13.75 26.25 14.0858 26.25 14.5ZM33.75 10.75V22.75C33.75 23.5784 33.0784 24.25 32.25 24.25H15.75C14.9216 24.25 14.25 23.5784 14.25 22.75V10.75C14.25 9.92157 14.9216 9.25 15.75 9.25H19.5V8.5C19.5 7.25736 20.5074 6.25 21.75 6.25H26.25C27.4926 6.25 28.5 7.25736 28.5 8.5V9.25H32.25C33.0784 9.25 33.75 9.92157 33.75 10.75ZM21 9.25H27V8.5C27 8.08579 26.6642 7.75 26.25 7.75H21.75C21.3358 7.75 21 8.08579 21 8.5V9.25ZM32.25 14.6509V10.75H15.75V14.6509C18.2815 16.0289 21.1178 16.7505 24 16.75C26.8822 16.7505 29.7185 16.0289 32.25 14.6509Z" fill="white"/>
</g>
<defs>
<clipPath id="clip0_3_288">
<rect width="24" height="24" fill="white" transform="translate(12 4)"/>
</clipPath>
</defs>
</svg>
