<svg width="24" height="32" viewBox="0 0 24 32" fill="none" xmlns="http://www.w3.org/2000/svg">
<g clip-path="url(#clip0_3_315)">
<path fill-rule="evenodd" clip-rule="evenodd" d="M12 6.25C6.61522 6.25 2.25 10.6152 2.25 16C2.25 21.3848 6.61522 25.75 12 25.75C17.3848 25.75 21.75 21.3848 21.75 16C21.7443 10.6176 17.3824 6.25568 12 6.25ZM6.945 22.5156C8.0476 20.7912 9.9532 19.7478 12 19.7478C14.0468 19.7478 15.9524 20.7912 17.055 22.5156C14.0817 24.828 9.91832 24.828 6.945 22.5156ZM9 15.25C9 13.5931 10.3431 12.25 12 12.25C13.6569 12.25 15 13.5931 15 15.25C15 16.9069 13.6569 18.25 12 18.25C10.3431 18.25 9 16.9069 9 15.25ZM18.165 21.4759C17.3285 20.2638 16.1524 19.3261 14.7844 18.7806C16.2906 17.5943 16.8797 15.5838 16.2519 13.7721C15.6242 11.9604 13.9174 10.7455 12 10.7455C10.0826 10.7455 8.37584 11.9604 7.74805 13.7721C7.12026 15.5838 7.70936 17.5943 9.21562 18.7806C7.84764 19.3261 6.67147 20.2638 5.835 21.4759C2.89046 18.1647 3.08752 13.1188 6.28133 10.0473C9.47513 6.97579 14.5249 6.97579 17.7187 10.0473C20.9125 13.1188 21.1095 18.1647 18.165 21.4759Z" fill="#AD9EB8"/>
</g>
<defs>
<clipPath id="clip0_3_315">
<rect width="24" height="24" fill="white" transform="translate(0 4)"/>
</clipPath>
</defs>
</svg>
